<?xml version="1.0" encoding="UTF-8" standalone="no"?>
<svg xmlns="http://www.w3.org/2000/svg" version="1.1" viewBox="0 0 200 200">
  <path id="path14" style="stroke-width:0.170703892554;fill-rule:nonzero;stroke:none;fill-opacity:1;fill:#231f20" d="M200.0 99.999884C200.0 155.22753 155.22898 200.0 100.00012 200.0C44.771987 200.0 0.0 155.22753 0.0 99.999884C0.0 44.772229 44.771987 0.0 100.00012 0.0C155.22898 0.0 200.0 44.772229 200.0 99.999884" />
  <path id="path16" style="stroke-width:0.170703892554;fill-rule:nonzero;stroke:none;fill-opacity:1;fill:#f4f4f4" d="M161.82555 100.52471C161.82555 100.52471 161.82555 100.05226 161.82555 100.05226C161.82646 100.13046 161.82646 100.21015 161.82646 100.28849C161.82646 100.36669 161.82646 100.44637 161.82555 100.52471M100.85399 39.159405C100.85399 39.159405 100.53956 39.159405 100.53956 39.159405C100.59086 39.158205 100.64518 39.158205 100.69647 39.158205C100.74837 39.158205 100.80209 39.158205 100.85399 39.159405" />
  <path id="path26" style="stroke-width:0.170703892554;fill-rule:nonzero;stroke:none;fill-opacity:1;fill:#f4f4f4" d="M100.69647 161.41745C66.93564 161.41745 39.567029 134.04981 39.567029 100.28849C39.567029 66.578954 66.849335 39.241484 100.53956 39.159405C100.53956 39.159405 100.85399 39.159405 100.85399 39.159405C134.46516 39.241485 161.70003 66.449799 161.82555 100.05226C161.82555 100.05226 161.82555 100.52471 161.82555 100.52471C161.70003 134.178 134.37945 161.41745 100.69647 161.41745M103.09079 107.89863C103.09079 107.89863 112.06359 135.5223 112.06359 135.5223C112.06359 135.5223 138.03202 135.5223 138.03202 135.5223C138.03202 135.5223 114.01432 61.585351 114.01432 61.585351C114.01432 61.585351 88.046496 61.585351 88.046496 61.585351C88.046496 61.585351 102.12189 104.9172 102.12189 104.9172C102.12189 104.9172 87.305724 104.9172 87.305724 104.9172C87.305724 104.9172 81.159622 86.000773 81.159622 86.000773C81.159622 86.000773 75.014003 104.9172 75.014003 104.9172C75.014003 104.9172 55.124931 104.9172 55.124931 104.9172C55.124931 104.9172 71.215026 116.60732 71.215026 116.60732C71.215026 116.60732 65.069407 135.5223 65.069407 135.5223C65.069407 135.5223 81.159622 123.83217 81.159622 123.83217C81.159622 123.83217 97.250803 135.5223 97.250803 135.5223C97.250803 135.5223 91.104697 116.60732 91.104697 116.60732C91.104697 116.60732 103.09079 107.89863 103.09079 107.89863" />
  <path id="path28" style="stroke-width:0.170703892554;fill-rule:nonzero;stroke:none;fill-opacity:1;fill:#f4f4f4" d="M21.308814 116.62385C21.308814 116.62385 25.741496 113.81454 25.741496 113.81454C25.741496 113.81454 20.612461 112.70659 20.612461 112.70659C20.612461 112.70659 21.308814 116.62385 21.308814 116.62385M29.378727 111.66827C29.378727 111.66827 29.91104 114.65852 29.91104 114.65852C29.91104 114.65852 16.188229 123.6172 16.188229 123.6172C16.188229 123.6172 15.585665 120.2285 15.585665 120.2285C15.585665 120.2285 18.651474 118.29153 18.651474 118.29153C18.651474 118.29153 17.542911 112.05816 17.542911 112.05816C17.542911 112.05816 13.996693 111.29819 13.996693 111.29819C13.996693 111.29819 13.408252 107.99291 13.408252 107.99291C13.408252 107.99291 29.378727 111.66827 29.378727 111.66827" />
  <path id="path30" style="stroke-width:0.170703892554;fill-rule:nonzero;stroke:none;fill-opacity:1;fill:#f4f4f4" d="M25.065785 126.87866C25.065785 126.87866 25.105375 126.86166 25.105375 126.86166C28.990656 125.12603 33.482726 126.63257 35.358374 130.83084C36.51027 133.40767 36.340075 135.33426 35.658207 137.16319C35.658207 137.16319 32.595778 136.2334 32.595778 136.2334C33.081862 134.75234 33.187479 133.41612 32.576948 132.04876C31.547085 129.74545 28.89204 128.94058 26.549138 129.98687C26.549138 129.98687 26.509548 130.00527 26.509548 130.00527C24.166646 131.05156 22.937861 133.54679 23.985588 135.88824C24.683388 137.45138 25.735824 138.12746 27.191777 138.76732C27.191777 138.76732 26.114477 141.54452 26.114477 141.54452C23.981846 140.80942 22.347126 139.66646 21.168795 137.03024C19.371846 133.00687 21.141035 128.63273 25.065785 126.87875" />
  <path id="path32" style="stroke-width:0.170703892554;fill-rule:nonzero;stroke:none;fill-opacity:1;fill:#f4f4f4" d="M34.016851 144.85443C34.016851 144.85443 34.049921 144.82653 34.049921 144.82653C37.382008 142.17945 42.10704 142.52225 44.968131 146.12182C46.725005 148.3317 47.038961 150.24042 46.832434 152.17969C46.832434 152.17969 43.636141 152.04245 43.636141 152.04245C43.738018 150.48654 43.508797 149.16578 42.577068 147.99361C41.007047 146.01898 38.235519 145.89972 36.226369 147.49666C36.226369 147.49666 36.192449 147.52456 36.192449 147.52456C34.182816 149.12005 33.612843 151.84077 35.210264 153.84931C36.274528 155.18794 37.462636 155.58265 39.03133 155.83866C39.03133 155.83866 38.677783 158.7968 38.677783 158.7968C36.430963 158.61719 34.562436 157.91613 32.765487 155.65519C30.024619 152.20662 30.651324 147.52927 34.016846 144.85443" />
  <path id="path34" style="stroke-width:0.170703892554;fill-rule:nonzero;stroke:none;fill-opacity:1;fill:#f4f4f4" d="M52.607006 154.72913C52.607006 154.72913 61.571832 161.59996 61.571832 161.59996C61.571832 161.59996 59.788523 163.92595 59.788523 163.92595C59.788523 163.92595 53.422736 159.04678 53.422736 159.04678C53.422736 159.04678 51.57485 161.45753 51.57485 161.45753C51.57485 161.45753 57.177776 165.75115 57.177776 165.75115C57.177776 165.75115 55.395553 168.07704 55.395553 168.07704C55.395553 168.07704 49.792144 163.78352 49.792144 163.78352C49.792144 163.78352 47.879681 166.27972 47.879681 166.27972C47.879681 166.27972 54.330807 171.22251 54.330807 171.22251C54.330807 171.22251 52.548584 173.54984 52.548584 173.54984C52.548584 173.54984 43.498901 166.61395 43.498901 166.61395C43.498901 166.61395 52.607006 154.72913 52.607006 154.72913" />
  <path id="path36" style="stroke-width:0.170703892554;fill-rule:nonzero;stroke:none;fill-opacity:1;fill:#f4f4f4" d="M60.619343 175.84796C60.619343 175.84796 63.34802 174.51549 63.34802 174.51549C64.123555 176.08092 65.123603 177.30258 66.685779 177.9999C67.915892 178.55068 68.875866 178.39509 69.234242 177.59445C69.234242 177.59445 69.251262 177.55575 69.251262 177.55575C69.592618 176.79422 69.298342 176.19443 67.276996 174.58662C64.837892 172.65159 63.402699 171.0946 64.61676 168.38114C64.61676 168.38114 64.63426 168.34244 64.63426 168.34244C65.743668 165.86326 68.468965 165.11453 71.261254 166.36407C73.251936 167.25476 74.671196 168.6395 75.559108 170.37139C75.559108 170.37139 72.983245 171.93827 72.983245 171.93827C72.148684 170.55715 71.184847 169.51558 70.033434 169.00161C68.881538 168.48584 68.039977 168.74186 67.743764 169.40574C67.743764 169.40574 67.725904 169.44434 67.725904 169.44434C67.324678 170.34263 67.778294 170.89752 69.870365 172.55964C72.318884 174.52256 73.435413 176.21715 72.369822 178.59868C72.369822 178.59868 72.351832 178.63748 72.351832 178.63748C71.137289 181.35239 68.386523 181.94832 65.439127 180.62912C63.369141 179.70355 61.603817 178.04614 60.619341 175.84796" />
  <path id="path38" style="stroke-width:0.170703892554;fill-rule:nonzero;stroke:none;fill-opacity:1;fill:#f4f4f4" d="M78.624315 182.99604C78.624315 182.99604 80.979528 181.07935 80.979528 181.07935C82.089902 182.42885 83.340295 183.39063 85.020279 183.71786C86.342853 183.97388 87.242957 183.60428 87.410376 182.74376C87.410376 182.74376 87.417976 182.70176 87.417976 182.70176C87.577791 181.88325 87.15532 181.36554 84.821351 180.25843C82.007817 178.92596 80.256254 177.73592 80.823934 174.81725C80.823934 174.81725 80.831934 174.77625 80.831934 174.77625C81.351089 172.10985 83.834975 170.76277 86.837534 171.34555C88.978615 171.7633 90.674167 172.78931 91.932653 174.27653C91.932653 174.27653 89.77974 176.385 89.77974 176.385C88.653313 175.22889 87.478844 174.4344 86.239678 174.19299C85.001477 173.95157 84.240426 174.39251 84.101373 175.10589C84.101373 175.10589 84.093373 175.14779 84.093373 175.14779C83.905676 176.11343 84.473838 176.55148 86.887957 177.69722C89.717423 179.05383 91.189554 180.4504 90.692122 183.01214C90.692122 183.01214 90.683022 183.05404 90.683022 183.05404C90.115827 185.97174 87.571588 187.17651 84.401126 186.55922C82.176637 186.12733 80.080822 184.91424 78.624263 182.9961" />
  <path id="path40" style="stroke-width:0.170703892554;fill-rule:nonzero;stroke:none;fill-opacity:1;fill:#f4f4f4" d="M98.927887 172.92326C98.927887 172.92326 102.22184 172.94956 102.22184 172.94956C102.22184 172.94956 102.09931 187.91855 102.09931 187.91855C102.09931 187.91855 98.806705 187.89215 98.806705 187.89215C98.806705 187.89215 98.927887 172.92329 98.927887 172.92329" />
  <path id="path42" style="stroke-width:0.170703892554;fill-rule:nonzero;stroke:none;fill-opacity:1;fill:#f4f4f4" d="M118.43131 183.22429C119.85853 182.94559 120.62055 182.2741 120.40787 181.18219C120.40787 181.18219 120.39887 181.14119 120.39887 181.14119C120.20695 180.15478 119.35452 179.68983 117.69711 180.01379C117.69711 180.01379 113.96187 180.74274 113.96187 180.74274C113.96187 180.74274 114.59231 183.97391 114.59231 183.97391C114.59231 183.97391 118.43131 183.22429 118.43131 183.22429M116.4166 177.47519C117.84287 177.19745 118.65533 176.55759 118.44168 175.46798C118.44168 175.46798 118.43368 175.42548 118.43368 175.42548C118.24646 174.4608 117.38317 174.06283 116.02052 174.32922C116.02052 174.32922 112.83076 174.9511 112.83076 174.9511C112.83076 174.9511 113.43658 178.05699 113.43658 178.05699C113.43658 178.05699 116.4166 177.47519 116.4166 177.47519M109.1308 172.73133C109.1308 172.73133 115.94984 171.40115 115.94984 171.40115C117.62886 171.07392 119.03954 171.27671 120.04297 171.9529C120.84711 172.49366 121.34201 173.24578 121.53756 174.25332C121.53756 174.25332 121.54756 174.29582 121.54756 174.29582C121.86985 175.95312 121.16855 177.04889 120.23429 177.84059C122.06056 178.15937 123.30383 178.94059 123.68768 180.91389C123.68768 180.91389 123.69568 180.95489 123.69568 180.95489C124.21953 183.64193 122.2991 185.41015 118.9838 186.05701C118.9838 186.05701 111.99746 187.42014 111.99746 187.42014C111.99746 187.42014 109.1307 172.73132 109.1307 172.73132" />
  <path id="path44" style="stroke-width:0.170703892554;fill-rule:nonzero;stroke:none;fill-opacity:1;fill:#f4f4f4" d="M126.93431 168.33401C126.93431 168.33401 129.9242 166.95302 129.9242 166.95302C129.9242 166.95302 134.94436 177.825 134.94436 177.825C134.94436 177.825 141.71958 174.69655 141.71958 174.69655C141.71958 174.69655 142.97492 177.41484 142.97492 177.41484C142.97492 177.41484 133.20981 181.92429 133.20981 181.92429C133.20981 181.92429 126.93431 168.33401 126.93431 168.33401" />
  <path id="path46" style="stroke-width:0.170703892554;fill-rule:nonzero;stroke:none;fill-opacity:1;fill:#f4f4f4" d="M141.33211 160.92617C141.33211 160.92617 150.23176 153.97713 150.23176 153.97713C150.23176 153.97713 152.03389 156.2866 152.03389 156.2866C152.03389 156.2866 145.71374 161.22179 145.71374 161.22179C145.71374 161.22179 147.58347 163.61659 147.58347 163.61659C147.58347 163.61659 153.14559 159.27262 153.14559 159.27262C153.14559 159.27262 154.94894 161.5816 154.94894 161.5816C154.94894 161.5816 149.38681 165.92606 149.38681 165.92606C149.38681 165.92606 151.32052 168.40282 151.32052 168.40282C151.32052 168.40282 157.72518 163.4021 157.72518 163.4021C157.72518 163.4021 159.52852 165.71108 159.52852 165.71108C159.52852 165.71108 150.54439 172.72663 150.54439 172.72663C150.54439 172.72663 141.33211 160.92617 141.33211 160.92617" />
  <path id="path48" style="stroke-width:0.170703892554;fill-rule:nonzero;stroke:none;fill-opacity:1;fill:#f4f4f4" d="M163.76772 158.09333C163.76772 158.09333 163.68562 156.46006 163.68562 156.46006C165.50949 156.44816 167.01468 155.87825 168.17105 154.44813C169.31293 153.03454 169.32862 151.17821 167.96465 150.07495C167.96465 150.07495 167.93085 150.04805 167.93085 150.04805C166.48359 148.87961 164.59816 149.58225 163.05071 151.4941C163.05071 151.4941 162.44718 152.24296 162.44718 152.24296C162.44718 152.24296 161.45015 151.87699 161.45015 151.87699C161.45015 151.87699 160.2793 144.85673 160.2793 144.85673C160.2793 144.85673 155.68403 150.54451 155.68403 150.54451C155.68403 150.54451 154.50232 149.58972 154.50232 149.58972C154.50232 149.58972 160.50985 142.15413 160.50985 142.15413C160.50985 142.15413 161.47429 142.93485 161.47429 142.93485C161.47429 142.93485 162.57513 149.87217 162.57513 149.87217C164.38089 147.97818 166.8276 146.95821 168.95685 148.67827C168.95685 148.67827 168.98945 148.70467 168.98945 148.70467C171.06921 150.38514 171.1018 153.26977 169.35398 155.43173C167.78119 157.37847 165.76419 158.14049 163.76772 158.09329" />
  <path id="path50" style="stroke-width:0.170703892554;fill-rule:nonzero;stroke:none;fill-opacity:1;fill:#f4f4f4" d="M177.19383 133.16624C177.19383 133.16624 177.15643 133.14824 177.15643 133.14824C175.50397 132.34289 173.61612 133.09034 172.66979 135.0315C171.68725 137.05187 172.47425 139.09917 173.97342 139.83185C173.97342 139.83185 174.01202 139.84845 174.01202 139.84845C175.72484 140.68253 177.72493 139.89565 178.68817 137.9162C179.6526 135.93396 178.90544 134.00037 177.19382 133.1663C177.19382 133.1663 177.19383 133.16624 177.19383 133.16624M176.93673 141.4638C175.33617 142.01639 173.65232 141.95749 170.90144 140.61886C170.90144 140.61886 170.86404 140.59956 170.86404 140.59956C166.76728 138.6055 164.56561 134.96356 166.27963 131.44378C167.06664 129.82885 168.2242 128.9174 169.75596 128.2126C169.75596 128.2126 170.49951 129.66807 170.49951 129.66807C169.16692 130.25603 168.22662 130.9647 167.62671 132.19493C166.43896 134.63778 168.16023 137.35608 171.64983 139.03268C170.93043 137.77613 170.50072 136.16446 171.4555 134.203C172.67342 131.70222 175.33861 130.33486 177.85653 131.56122C177.85653 131.56122 177.89523 131.58052 177.89523 131.58052C180.49281 132.84503 181.35465 135.85942 180.02568 138.58942C179.30507 140.07096 178.19578 141.03046 176.93682 141.46379" />
  <path id="path52" style="stroke-width:0.170703892554;fill-rule:nonzero;stroke:none;fill-opacity:1;fill:#f4f4f4" d="M180.24286 112.76308C180.24286 112.76308 180.20056 112.75508 180.20056 112.75508C177.00306 112.06996 173.76331 113.2134 173.18272 115.93158C172.5973 118.67015 175.03193 120.98336 178.24995 121.67271C178.24995 121.67271 178.29225 121.68071 178.29225 121.68071C181.49216 122.36488 184.73069 121.22191 185.31732 118.48201C185.90275 115.74403 183.44155 113.44628 180.24285 112.7626C180.24285 112.7626 180.24286 112.76308 180.24286 112.76308M177.96756 123.40366C177.96756 123.40366 177.92656 123.39566 177.92656 123.39566C173.82979 122.52055 170.88215 119.33174 171.68727 115.56921C172.49117 111.8056 176.42859 110.15531 180.52535 111.03236C180.52535 111.03236 180.56765 111.04036 180.56765 111.04036C184.6656 111.91644 187.61808 115.08352 186.81296 118.84617C186.00424 122.63186 182.0656 124.28167 177.96764 123.40426" />
  <path id="path54" style="stroke-width:0.170703892554;fill-rule:nonzero;stroke:none;fill-opacity:1;fill:#f4f4f4" d="M33.077156 58.938271C33.88347 57.616542 33.640611 56.428796 32.600971 55.79509C32.600971 55.79509 32.565601 55.77336 32.565601 55.77336C31.403324 55.06482 30.310815 55.510225 29.50462 56.831954C29.50462 56.831954 27.86133 59.527316 27.86133 59.527316C27.86133 59.527316 31.402359 61.685538 31.402359 61.685538C31.402359 61.685538 33.077156 58.938271 33.077156 58.938271M23.759264 60.746446C23.759264 60.746446 27.195158 55.109481 27.195158 55.109481C28.151389 53.541511 29.333463 52.59397 30.637085 52.27772C31.7442 52.009753 32.938102 52.23065 34.099414 52.939189C34.099414 52.939189 34.134784 52.960919 34.134784 52.960919C36.125466 54.17522 36.721028 56.012363 36.346116 57.934002C36.346116 57.934002 42.58661 57.608096 42.58661 57.608096C42.58661 57.608096 40.65435 60.77904 40.65435 60.77904C40.65435 60.77904 35.096689 61.014416 35.096689 61.014416C35.096689 61.014416 33.798618 63.146082 33.798618 63.146082C33.798618 63.146082 37.742804 65.55175 37.742804 65.55175C37.742804 65.55175 36.089133 68.265219 36.089133 68.265219C36.089133 68.265219 23.759268 60.746449 23.759268 60.746449" />
  <path id="path56" style="stroke-width:0.170703892554;fill-rule:nonzero;stroke:none;fill-opacity:1;fill:#f4f4f4" d="M34.435097 44.830167C34.435097 44.830167 41.861406 36.849094 41.861406 36.849094C41.861406 36.849094 43.932718 38.77556 43.932718 38.77556C43.932718 38.77556 38.658837 44.443908 38.658837 44.443908C38.658837 44.443908 40.804263 46.440383 40.804263 46.440383C40.804263 46.440383 45.44625 41.452816 45.44625 41.452816C45.44625 41.452816 47.51708 43.379282 47.51708 43.379282C47.51708 43.379282 42.875094 48.368057 42.875094 48.368057C42.875094 48.368057 45.098255 50.434541 45.098255 50.434541C45.098255 50.434541 50.441905 44.691355 50.441905 44.691355C50.441905 44.691355 52.512735 46.617821 52.512735 46.617821C52.512735 46.617821 45.015812 54.674939 45.015812 54.674939C45.015812 54.674939 34.435097 44.830167 34.435097 44.830167" />
  <path id="path58" style="stroke-width:0.170703892554;fill-rule:nonzero;stroke:none;fill-opacity:1;fill:#f4f4f4" d="M46.298313 32.757164C46.298313 32.757164 49.165078 30.734133 49.165078 30.734133C49.165078 30.734133 58.11892 36.872028 58.11892 36.872028C58.11892 36.872028 55.338459 26.379065 55.338459 26.379065C55.338459 26.379065 58.139199 24.404317 58.139199 24.404317C58.139199 24.404317 61.754219 39.662748 61.754219 39.662748C61.754219 39.662748 59.460324 41.281414 59.460324 41.281414C59.460324 41.281414 46.298313 32.757164 46.298313 32.757164" />
  <path id="path60" style="stroke-width:0.170703892554;fill-rule:nonzero;stroke:none;fill-opacity:1;fill:#f4f4f4" d="M63.842069 21.634117C63.842069 21.634117 66.714506 20.273761 66.714506 20.273761C66.714506 20.273761 72.89839 33.335346 72.89839 33.335346C72.89839 33.335346 70.025952 34.6957 70.025952 34.6957C70.025952 34.6957 63.842069 21.634117 63.842069 21.634117" />
  <path id="path62" style="stroke-width:0.170703892554;fill-rule:nonzero;stroke:none;fill-opacity:1;fill:#f4f4f4" d="M73.654129 17.356299C73.654129 17.356299 84.149869 14.42556 84.149869 14.42556C84.149869 14.42556 84.911402 17.148685 84.911402 17.148685C84.911402 17.148685 77.45552 19.230862 77.45552 19.230862C77.45552 19.230862 78.244333 22.054173 78.244333 22.054173C78.244333 22.054173 84.803008 20.221858 84.803008 20.221858C84.803008 20.221858 85.564422 22.944983 85.564422 22.944983C85.564422 22.944983 79.004418 24.77609 79.004418 24.77609C79.004418 24.77609 79.820028 27.69838 79.820028 27.69838C79.820028 27.69838 87.37501 25.590855 87.37501 25.590855C87.37501 25.590855 88.135095 28.312773 88.135095 28.312773C88.135095 28.312773 77.539411 31.272482 77.539411 31.272482C77.539411 31.272482 73.654129 17.356299 73.654129 17.356299" />
  <path id="path64" style="stroke-width:0.170703892554;fill-rule:nonzero;stroke:none;fill-opacity:1;fill:#f4f4f4" d="M91.126786 12.757406C91.126786 12.757406 94.530213 12.826206 94.530213 12.826206C94.530213 12.826206 97.322384 22.664942 97.322384 22.664942C97.322384 22.664942 100.75972 12.911907 100.75972 12.911907C100.75972 12.911907 103.48309 12.968637 103.48309 12.968637C103.48309 12.968637 106.52198 22.852035 106.52198 22.852035C106.52198 22.852035 109.71224 13.136418 109.71224 13.136418C109.71224 13.136418 113.03358 13.204018 113.03358 13.204018C113.03358 13.204018 107.80593 27.645271 107.80593 27.645271C107.80593 27.645271 105.04285 27.588531 105.04285 27.588531C105.04285 27.588531 101.97619 18.075699 101.97619 18.075699C101.97619 18.075699 98.523764 27.455754 98.523764 27.455754C98.523764 27.455754 95.759358 27.399024 95.759358 27.399024C95.759358 27.399024 91.126786 12.757401 91.126786 12.757401" />
  <path id="path66" style="stroke-width:0.170703892554;fill-rule:nonzero;stroke:none;fill-opacity:1;fill:#f4f4f4" d="M120.24998 15.083408C120.24998 15.083408 130.69189 18.201241 130.69189 18.201241C130.69189 18.201241 129.88315 20.911088 129.88315 20.911088C129.88315 20.911088 122.46698 18.696135 122.46698 18.696135C122.46698 18.696135 121.62808 21.503754 121.62808 21.503754C121.62808 21.503754 128.15345 23.451947 128.15345 23.451947C128.15345 23.451947 127.34351 26.161794 127.34351 26.161794C127.34351 26.161794 120.81815 24.213601 120.81815 24.213601C120.81815 24.213601 119.95051 27.120198 119.95051 27.120198C119.95051 27.120198 127.46421 29.364121 127.46421 29.364121C127.46421 29.364121 126.65669 32.073968 126.65669 32.073968C126.65669 32.073968 116.11629 28.925959 116.11629 28.925959C116.11629 28.925959 120.24998 15.083408 120.24998 15.083408" />
  <path id="path68" style="stroke-width:0.170703892554;fill-rule:nonzero;stroke:none;fill-opacity:1;fill:#f4f4f4" d="M136.78029 33.935253C139.0387 35.221979 141.43109 34.565338 142.6973 32.340729C142.6973 32.340729 142.7178 32.306929 142.7178 32.306929C143.98279 30.082319 143.34667 27.653717 141.08705 26.368199C141.08705 26.368199 138.95418 25.153897 138.95418 25.153897C138.95418 25.153897 134.64498 32.72095 134.64498 32.72095C134.64498 32.72095 136.78029 33.935253 136.78029 33.935253M137.61075 21.089732C137.61075 21.089732 142.50658 23.875625 142.50658 23.875625C146.45125 26.120754 147.63538 30.380465 145.62441 33.913526C145.62441 33.913526 145.60381 33.949736 145.60381 33.949736C143.59284 37.48159 139.30537 38.674165 135.3607 36.427829C135.3607 36.427829 130.46487 33.641936 130.46487 33.641936C130.46487 33.641936 137.61066 21.08973 137.61066 21.08973" />
  <path id="path70" style="stroke-width:0.170703892554;fill-rule:nonzero;stroke:none;fill-opacity:1;fill:#f4f4f4" d="M161.5938 46.932864C162.51237 47.995076 163.43577 48.369264 164.24812 47.66917C164.24812 47.66917 164.27952 47.6414 164.27952 47.6414C164.99771 47.022178 164.91805 46.108435 164.04172 45.093298C164.04172 45.093298 161.99093 42.717806 161.99093 42.717806C161.99093 42.717806 159.67942 44.714282 159.67942 44.714282C159.67942 44.714282 161.5938 46.932864 161.5938 46.932864M157.74208 51.377254C158.65944 52.439467 159.58646 52.755716 160.40002 52.054414C160.40002 52.054414 160.43142 52.027864 160.43142 52.027864C161.16531 51.394158 161.146 50.456273 160.08016 49.221452C160.08016 49.221452 157.67932 46.440388 157.67932 46.440388C157.67932 46.440388 155.27366 48.517737 155.27366 48.517737C155.27366 48.517737 157.74208 51.377254 157.74208 51.377254M162.07663 38.554668C162.07663 38.554668 166.46187 43.63035 166.46187 43.63035C167.53977 44.880864 168.04553 46.161553 167.96104 47.326365C167.89224 48.257007 167.49873 49.033146 166.74795 49.681337C166.74795 49.681337 166.71785 49.707887 166.71785 49.707887C165.48303 50.773721 164.2301 50.710953 163.1172 50.307796C163.72676 51.991643 163.66641 53.406316 162.19742 54.673728C162.19742 54.673728 162.16602 54.701498 162.16602 54.701498C160.16713 56.427593 157.76509 55.667146 155.63222 53.197503C155.63222 53.197503 151.14196 47.996287 151.14196 47.996287C151.14196 47.996287 162.07671 38.554672 162.07671 38.554672" />
  <path id="path72" style="stroke-width:0.170703892554;fill-rule:nonzero;stroke:none;fill-opacity:1;fill:#f4f4f4" d="M167.94172 60.949232C167.94172 60.949232 172.98723 51.891461 172.98723 51.891461C172.98723 51.891461 174.7604 55.157763 174.7604 55.157763C174.7604 55.157763 171.30459 60.955267 171.30459 60.955267C171.30459 60.955267 178.07981 61.27393 178.07981 61.27393C178.07981 61.27393 179.80229 64.449702 179.80229 64.449702C179.80229 64.449702 169.51331 63.714603 169.51331 63.714603C169.51331 63.714603 164.45091 66.463077 164.45091 66.463077C164.45091 66.463077 162.93363 63.667528 162.93363 63.667528C162.93363 63.667528 167.94172 60.949232 167.94172 60.949232" />
</svg>