<?xml version="1.0" encoding="utf-8"?>
<svg width="23px" height="22px" viewBox="0 0 23 22" version="1.1" xmlns:xlink="http://www.w3.org/1999/xlink" xmlns="http://www.w3.org/2000/svg">
  <path d="M11.0174 0C12.5018 0 13.8482 0.603839 14.8234 1.57902C15.7984 2.55405 16.4023 3.90022 16.4023 5.38485C16.4023 6.86948 15.7984 8.21565 14.8234 9.19068C13.8482 10.1659 12.5018 10.7697 11.0174 10.7697C9.53306 10.7697 8.18669 10.1659 7.2115 9.19068C6.23648 8.21565 5.63258 6.86948 5.63258 5.38485C5.63258 3.90022 6.23647 2.55405 7.2115 1.57902C8.18668 0.603839 9.53305 0 11.0174 0ZM11.0174 1.37251C9.91137 1.37251 8.90834 1.82266 8.18179 2.54921C7.45524 3.27575 7.00509 4.27878 7.00509 5.38485C7.00509 6.49092 7.45524 7.49395 8.18179 8.2205C8.90834 8.94705 9.91137 9.3972 11.0174 9.3972C12.1235 9.3972 13.1265 8.94705 13.8531 8.2205C14.5796 7.49395 15.0298 6.49092 15.0298 5.38485C15.0298 4.27878 14.5796 3.27575 13.8531 2.54921C13.1265 1.82266 12.1235 1.37251 11.0174 1.37251ZM11.0174 11.3349C14.0566 11.3349 16.8126 12.571 18.8087 14.5671C20.7257 16.4841 21.9418 19.102 22.0349 21.999L20.6616 21.999C20.569 19.4806 19.5069 17.2057 17.8384 15.5372C16.0909 13.7898 13.6783 12.7074 11.0175 12.7074C8.35665 12.7074 5.94404 13.7898 4.19659 15.5372C2.5281 17.2057 1.46596 19.4806 1.37339 21.999L2.12651e-05 21.999C0.093187 19.1024 1.30935 16.4843 3.22649 14.5672C5.22254 12.5711 7.97839 11.3349 11.0174 11.3349Z" id="Combined-Shape-Copy" fill="#000000" fill-rule="evenodd" stroke="none" />
</svg>