<?xml version="1.0" encoding="utf-8"?>
<svg width="69px" height="47px" viewBox="0 0 69 47" version="1.1" xmlns:xlink="http://www.w3.org/1999/xlink" xmlns="http://www.w3.org/2000/svg">
  <g id="Group-8" transform="translate(0.5 0.5)">
    <path d="M2.999 0L59.001 0Q59.1483 0 59.2949 0.014441Q59.4416 0.028882 59.5861 0.0576249Q59.7306 0.0863679 59.8716 0.129136Q60.0126 0.171904 60.1487 0.228285Q60.2848 0.284667 60.4147 0.354118Q60.5446 0.42357 60.6671 0.505423Q60.7896 0.587276 60.9035 0.680742Q61.0174 0.774208 61.1216 0.878387Q61.2258 0.982566 61.3193 1.09645Q61.4127 1.21034 61.4946 1.33284Q61.5764 1.45535 61.6459 1.58528Q61.7153 1.71522 61.7717 1.85133Q61.8281 1.98745 61.8709 2.12844Q61.9136 2.26942 61.9424 2.41392Q61.9711 2.55842 61.9856 2.70505Q62 2.85167 62 2.999L62 41L0 41L0 2.999Q0 2.85167 0.014441 2.70505Q0.028882 2.55842 0.0576249 2.41392Q0.0863679 2.26942 0.129136 2.12844Q0.171904 1.98745 0.228285 1.85133Q0.284667 1.71522 0.354118 1.58528Q0.42357 1.45535 0.505423 1.33284Q0.587276 1.21034 0.680742 1.09645Q0.774208 0.982566 0.878387 0.878387Q0.982566 0.774208 1.09645 0.680742Q1.21034 0.587276 1.33284 0.505423Q1.45535 0.42357 1.58528 0.354118Q1.71522 0.284667 1.85133 0.228285Q1.98745 0.171904 2.12844 0.129136Q2.26942 0.0863679 2.41392 0.0576249Q2.55842 0.028882 2.70505 0.014441Q2.85167 0 2.999 0Z" transform="translate(2.8181818 0)" id="Rectangle" fill="#FFFFFF" fill-rule="evenodd" stroke="#000000" stroke-width="1" />
    <path d="M0 0L68 0L68 2.31918Q68 2.43302 67.9888 2.54631Q67.9777 2.65959 67.9555 2.77124Q67.9333 2.88289 67.9002 2.99182Q67.8672 3.10076 67.8236 3.20593Q67.78 3.3111 67.7264 3.41149Q67.6727 3.51189 67.6095 3.60654Q67.5462 3.70119 67.474 3.78919Q67.4018 3.87718 67.3213 3.95768Q67.2408 4.03817 67.1528 4.11039Q67.0648 4.1826 66.9702 4.24585Q66.8755 4.30909 66.7751 4.36275Q66.6747 4.41642 66.5695 4.45998Q66.4644 4.50354 66.3555 4.53659Q66.2465 4.56963 66.1349 4.59184Q66.0232 4.61405 65.9099 4.62521Q65.7966 4.63636 65.6828 4.63636L2.31718 4.63636Q2.20335 4.63636 2.09006 4.62521Q1.97677 4.61405 1.86512 4.59184Q1.75347 4.56963 1.64454 4.53659Q1.53561 4.50354 1.43043 4.45998Q1.32526 4.41641 1.22487 4.36275Q1.12448 4.30909 1.02982 4.24585Q0.935174 4.1826 0.847177 4.11039Q0.759181 4.03817 0.678687 3.95768Q0.598193 3.87718 0.525976 3.78919Q0.453759 3.70119 0.390516 3.60654Q0.327272 3.51189 0.27361 3.41149Q0.219948 3.3111 0.176385 3.20593Q0.132822 3.10076 0.0997771 2.99182Q0.0667323 2.88289 0.044524 2.77124Q0.0223157 2.65959 0.0111579 2.54631Q0 2.43302 0 2.31918L0 0Z" transform="translate(0 41)" id="Rectangle" fill="#FFFFFF" fill-rule="evenodd" stroke="#000000" stroke-width="1" />
    <path d="M0 0L22.4091 0L22.4091 0.773727Q22.4091 0.849736 22.3943 0.924284Q22.3794 0.998832 22.3503 1.06905Q22.3213 1.13928 22.279 1.20248Q22.2368 1.26567 22.1831 1.31942Q22.1293 1.37317 22.0661 1.41539Q22.0029 1.45762 21.9327 1.48671Q21.8625 1.5158 21.7879 1.53063Q21.7134 1.54545 21.6374 1.54545L0.771727 1.54545Q0.695719 1.54545 0.621171 1.53063Q0.546623 1.5158 0.4764 1.48671Q0.406177 1.45762 0.342979 1.41539Q0.27978 1.37317 0.226034 1.31942Q0.172288 1.26567 0.130059 1.20248Q0.0878314 1.13928 0.0587442 1.06905Q0.029657 0.998832 0.0148285 0.924284Q0 0.849736 0 0.773727L0 0Z" transform="translate(23.181818 41)" id="Rectangle-Copy-27" fill="#FFFFFF" fill-rule="evenodd" stroke="#000000" stroke-width="1" />
  </g>
</svg>