<?xml version="1.0" encoding="utf-8"?>
<svg width="46px" height="65px" viewBox="0 0 46 65" version="1.1" xmlns:xlink="http://www.w3.org/1999/xlink" xmlns="http://www.w3.org/2000/svg">
  <g id="Group-11" transform="translate(0.5 0.5)">
    <path d="M2.999 0L31.001 0Q31.1483 0 31.295 0.014441Q31.4416 0.028882 31.5861 0.0576249Q31.7306 0.0863679 31.8716 0.129136Q32.0126 0.171904 32.1487 0.228285Q32.2848 0.284667 32.4147 0.354118Q32.5447 0.42357 32.6671 0.505423Q32.7897 0.587276 32.9035 0.680742Q33.0174 0.774208 33.1216 0.878387Q33.2258 0.982566 33.3193 1.09645Q33.4127 1.21034 33.4946 1.33284Q33.5764 1.45535 33.6459 1.58528Q33.7153 1.71522 33.7717 1.85133Q33.8281 1.98745 33.8709 2.12844Q33.9136 2.26942 33.9424 2.41392Q33.9711 2.55842 33.9856 2.70505Q34 2.85167 34 2.999L34 55.001Q34 55.1483 33.9856 55.295Q33.9711 55.4416 33.9424 55.5861Q33.9136 55.7306 33.8709 55.8716Q33.8281 56.0125 33.7717 56.1487Q33.7153 56.2848 33.6459 56.4147Q33.5764 56.5447 33.4946 56.6671Q33.4127 56.7897 33.3193 56.9035Q33.2258 57.0174 33.1216 57.1216Q33.0174 57.2258 32.9035 57.3193Q32.7897 57.4127 32.6671 57.4946Q32.5447 57.5764 32.4147 57.6459Q32.2848 57.7153 32.1487 57.7717Q32.0126 57.8281 31.8716 57.8709Q31.7306 57.9136 31.5861 57.9424Q31.4416 57.9711 31.295 57.9856Q31.1483 58 31.001 58L2.999 58Q2.85167 58 2.70505 57.9856Q2.55842 57.9711 2.41392 57.9424Q2.26942 57.9136 2.12844 57.8709Q1.98745 57.8281 1.85133 57.7717Q1.71522 57.7153 1.58528 57.6459Q1.45535 57.5764 1.33284 57.4946Q1.21034 57.4127 1.09645 57.3193Q0.982566 57.2258 0.878387 57.1216Q0.774208 57.0174 0.680742 56.9035Q0.587276 56.7897 0.505423 56.6672Q0.42357 56.5447 0.354118 56.4147Q0.284667 56.2848 0.228285 56.1487Q0.171904 56.0125 0.129136 55.8716Q0.0863679 55.7306 0.0576249 55.5861Q0.028882 55.4416 0.014441 55.295Q0 55.1483 0 55.001L0 2.999Q0 2.85167 0.014441 2.70505Q0.028882 2.55842 0.0576249 2.41392Q0.0863679 2.26942 0.129136 2.12844Q0.171904 1.98745 0.228285 1.85133Q0.284667 1.71522 0.354118 1.58528Q0.42357 1.45535 0.505423 1.33284Q0.587276 1.21034 0.680742 1.09645Q0.774208 0.982566 0.878387 0.878387Q0.982566 0.774208 1.09645 0.680742Q1.21034 0.587276 1.33284 0.505423Q1.45535 0.42357 1.58528 0.354118Q1.71522 0.284667 1.85133 0.228285Q1.98745 0.171904 2.12844 0.129136Q2.26942 0.0863679 2.41392 0.0576249Q2.55842 0.028882 2.70505 0.014441Q2.85167 0 2.999 0L2.999 0Z" transform="translate(0 6)" id="Rectangle-Copy-8" fill="#FFFFFF" fill-rule="evenodd" stroke="#000000" stroke-width="1" />
    <path d="M2.999 0L31.001 0Q31.1483 0 31.295 0.014441Q31.4416 0.028882 31.5861 0.0576249Q31.7306 0.0863679 31.8716 0.129136Q32.0126 0.171904 32.1487 0.228285Q32.2848 0.284667 32.4147 0.354118Q32.5447 0.42357 32.6671 0.505423Q32.7897 0.587276 32.9035 0.680742Q33.0174 0.774208 33.1216 0.878387Q33.2258 0.982566 33.3193 1.09645Q33.4127 1.21034 33.4946 1.33284Q33.5764 1.45535 33.6459 1.58528Q33.7153 1.71522 33.7717 1.85133Q33.8281 1.98745 33.8709 2.12844Q33.9136 2.26942 33.9424 2.41392Q33.9711 2.55842 33.9856 2.70505Q34 2.85167 34 2.999L34 61.001Q34 61.1483 33.9856 61.295Q33.9711 61.4416 33.9424 61.5861Q33.9136 61.7306 33.8709 61.8716Q33.8281 62.0125 33.7717 62.1487Q33.7153 62.2848 33.6459 62.4147Q33.5764 62.5446 33.4946 62.6671Q33.4127 62.7897 33.3193 62.9035Q33.2258 63.0174 33.1216 63.1216Q33.0174 63.2258 32.9035 63.3193Q32.7897 63.4127 32.6671 63.4946Q32.5447 63.5764 32.4147 63.6459Q32.2848 63.7153 32.1487 63.7717Q32.0126 63.8281 31.8716 63.8709Q31.7306 63.9136 31.5861 63.9424Q31.4416 63.9711 31.295 63.9856Q31.1483 64 31.001 64L2.999 64Q2.85167 64 2.70505 63.9856Q2.55842 63.9711 2.41392 63.9424Q2.26942 63.9136 2.12844 63.8709Q1.98745 63.8281 1.85133 63.7717Q1.71522 63.7153 1.58528 63.6459Q1.45535 63.5764 1.33284 63.4946Q1.21034 63.4127 1.09645 63.3193Q0.982566 63.2258 0.878387 63.1216Q0.774208 63.0174 0.680742 62.9035Q0.587276 62.7897 0.505423 62.6672Q0.42357 62.5447 0.354118 62.4147Q0.284667 62.2848 0.228285 62.1487Q0.171904 62.0125 0.129136 61.8716Q0.0863679 61.7306 0.0576249 61.5861Q0.028882 61.4416 0.014441 61.2949Q0 61.1483 0 61.001L0 2.999Q0 2.85167 0.014441 2.70505Q0.028882 2.55842 0.0576249 2.41392Q0.0863679 2.26942 0.129136 2.12844Q0.171904 1.98745 0.228285 1.85133Q0.284667 1.71522 0.354118 1.58528Q0.42357 1.45535 0.505423 1.33284Q0.587276 1.21034 0.680742 1.09645Q0.774208 0.982566 0.878387 0.878387Q0.982566 0.774208 1.09645 0.680742Q1.21034 0.587276 1.33284 0.505423Q1.45535 0.42357 1.58528 0.354118Q1.71522 0.284667 1.85133 0.228285Q1.98745 0.171904 2.12844 0.129136Q2.26942 0.0863679 2.41392 0.0576249Q2.55842 0.028882 2.70505 0.014441Q2.85167 0 2.999 0L2.999 0Z" transform="translate(11 0)" id="Rectangle" fill="#FFFFFF" fill-rule="evenodd" stroke="#000000" stroke-width="1" />
    <path d="M1.5 3C2.32843 3 3 2.32843 3 1.5C3 0.671573 2.32843 0 1.5 0C0.671573 0 0 0.671573 0 1.5C0 2.32843 0.671573 3 1.5 3Z" transform="translate(26.5 3)" id="Oval" fill="#FFFFFF" fill-rule="evenodd" stroke="#000000" stroke-width="1" />
  </g>
</svg>