<?xml version="1.0" encoding="utf-8"?>
<svg width="44px" height="65px" viewBox="0 0 44 65" version="1.1" xmlns:xlink="http://www.w3.org/1999/xlink" xmlns="http://www.w3.org/2000/svg">
  <g id="Group-6" transform="translate(0.5 0.5)">
    <path d="M9.17933 0L33.3125 0Q33.5378 0 33.7629 0.0110569Q33.988 0.0221138 34.2122 0.044201Q34.4365 0.0662881 34.6594 0.0993523Q34.8823 0.132417 35.1033 0.176378Q35.3243 0.22034 35.5429 0.275093Q35.7615 0.329846 35.9771 0.395259Q36.1927 0.460671 36.4049 0.536586Q36.6171 0.612501 36.8252 0.698735Q37.0334 0.784968 37.2371 0.881314Q37.4408 0.977659 37.6396 1.08388Q37.8383 1.19011 38.0316 1.30596Q38.2249 1.4218 38.4122 1.547Q38.5996 1.67219 38.7806 1.80642Q38.9616 1.94066 39.1358 2.08361Q39.31 2.22657 39.4769 2.37789Q39.6439 2.52922 39.8032 2.68856Q39.9626 2.8479 40.1139 3.01487Q40.2652 3.18183 40.4082 3.35602Q40.5511 3.53021 40.6854 3.71121Q40.8196 3.8922 40.9448 4.07957Q41.07 4.26693 41.1858 4.46021Q41.3017 4.65349 41.4079 4.85222Q41.5141 5.05095 41.6105 5.25466Q41.7068 5.45836 41.7931 5.66655Q41.8793 5.87474 41.9552 6.0869Q42.0311 6.29907 42.0965 6.51471Q42.1619 6.73034 42.2167 6.94893Q42.2715 7.16752 42.3154 7.38853Q42.3594 7.60954 42.3925 7.83244Q42.4255 8.05534 42.4476 8.2796Q42.4697 8.50385 42.4807 8.72892Q42.4918 8.95399 42.4918 9.17933L42.4918 9.18133Q42.4918 9.40667 42.4807 9.63174Q42.4697 9.8568 42.4476 10.0811Q42.4255 10.3053 42.3925 10.5282Q42.3594 10.7511 42.3154 10.9721Q42.2715 11.1931 42.2167 11.4117Q42.1619 11.6303 42.0965 11.8459Q42.0311 12.0616 41.9552 12.2737Q41.8793 12.4859 41.7931 12.6941Q41.7068 12.9023 41.6105 13.106Q41.5141 13.3097 41.4079 13.5084Q41.3017 13.7072 41.1858 13.9004Q41.07 14.0937 40.9448 14.2811Q40.8196 14.4685 40.6854 14.6494Q40.5511 14.8304 40.4082 15.0046Q40.2652 15.1788 40.1139 15.3458Q39.9626 15.5128 39.8032 15.6721Q39.6439 15.8314 39.4769 15.9828Q39.31 16.1341 39.1358 16.277Q38.9616 16.42 38.7806 16.5542Q38.5996 16.6885 38.4122 16.8137Q38.2249 16.9388 38.0316 17.0547Q37.8383 17.1705 37.6396 17.2768Q37.4408 17.383 37.2371 17.4793Q37.0334 17.5757 36.8252 17.6619Q36.6171 17.7481 36.4049 17.8241Q36.1927 17.9 35.9771 17.9654Q35.7615 18.0308 35.5429 18.0856Q35.3243 18.1403 35.1033 18.1843Q34.8823 18.2282 34.6594 18.2613Q34.4365 18.2944 34.2122 18.3165Q33.988 18.3385 33.7629 18.3496Q33.5378 18.3607 33.3125 18.3607L9.17933 18.3607Q8.95399 18.3607 8.72892 18.3496Q8.50385 18.3385 8.2796 18.3165Q8.05534 18.2944 7.83244 18.2613Q7.60954 18.2282 7.38853 18.1843Q7.16752 18.1403 6.94893 18.0856Q6.73034 18.0308 6.51471 17.9654Q6.29907 17.9 6.0869 17.8241Q5.87474 17.7481 5.66655 17.6619Q5.45836 17.5757 5.25466 17.4793Q5.05095 17.383 4.85222 17.2768Q4.65349 17.1705 4.46021 17.0547Q4.26693 16.9388 4.07957 16.8137Q3.8922 16.6885 3.71121 16.5542Q3.53021 16.42 3.35602 16.277Q3.18183 16.1341 3.01487 15.9828Q2.8479 15.8314 2.68856 15.6721Q2.52922 15.5128 2.37789 15.3458Q2.22657 15.1788 2.08361 15.0046Q1.94066 14.8304 1.80642 14.6494Q1.67219 14.4685 1.547 14.2811Q1.4218 14.0937 1.30596 13.9004Q1.19011 13.7072 1.08388 13.5084Q0.977659 13.3097 0.881314 13.106Q0.784968 12.9023 0.698735 12.6941Q0.612501 12.4859 0.536586 12.2737Q0.460671 12.0616 0.395259 11.8459Q0.329846 11.6303 0.275093 11.4117Q0.22034 11.1931 0.176378 10.9721Q0.132417 10.7511 0.0993523 10.5282Q0.0662881 10.3053 0.044201 10.0811Q0.0221138 9.8568 0.0110569 9.63174Q0 9.40667 0 9.18133L0 9.17933Q0 8.95399 0.0110569 8.72892Q0.0221138 8.50385 0.044201 8.2796Q0.0662881 8.05534 0.0993523 7.83244Q0.132417 7.60954 0.176378 7.38853Q0.22034 7.16752 0.275093 6.94893Q0.329846 6.73034 0.395259 6.51471Q0.460671 6.29907 0.536586 6.0869Q0.612501 5.87474 0.698735 5.66655Q0.784968 5.45836 0.881314 5.25466Q0.977659 5.05095 1.08388 4.85222Q1.19011 4.65349 1.30596 4.46021Q1.4218 4.26693 1.547 4.07957Q1.67219 3.8922 1.80642 3.71121Q1.94066 3.53021 2.08361 3.35602Q2.22657 3.18183 2.37789 3.01487Q2.52922 2.8479 2.68856 2.68856Q2.8479 2.52922 3.01487 2.37789Q3.18183 2.22657 3.35602 2.08361Q3.53021 1.94066 3.71121 1.80642Q3.8922 1.67219 4.07957 1.547Q4.26693 1.4218 4.46021 1.30596Q4.65349 1.19011 4.85222 1.08388Q5.05095 0.977659 5.25466 0.881314Q5.45836 0.784968 5.66655 0.698735Q5.87474 0.612501 6.0869 0.536586Q6.29907 0.460671 6.51471 0.395259Q6.73034 0.329846 6.94893 0.275093Q7.16752 0.22034 7.38853 0.176378Q7.60954 0.132417 7.83244 0.0993523Q8.05534 0.0662881 8.2796 0.044201Q8.50385 0.0221138 8.72892 0.0110569Q8.95399 0 9.17933 0Z" transform="translate(0 7.911201)" id="Rectangle" fill="#FFFFFF" fill-rule="evenodd" stroke="#000000" stroke-width="1" />
    <path d="M0 0L42.4918 0L42.4918 26.3453Q42.4918 26.6644 42.4761 26.9831Q42.4605 27.3018 42.4292 27.6194Q42.3979 27.937 42.3511 28.2526Q42.3043 28.5683 42.242 28.8812Q42.1798 29.1942 42.1022 29.5038Q42.0247 29.8133 41.9321 30.1187Q41.8394 30.424 41.7319 30.7245Q41.6244 31.0249 41.5023 31.3198Q41.3802 31.6146 41.2438 31.903Q41.1073 32.1915 40.9569 32.4729Q40.8065 32.7544 40.6424 33.0281Q40.4784 33.3018 40.3011 33.5671Q40.1238 33.8324 39.9337 34.0888Q39.7436 34.3451 39.5412 34.5917Q39.3387 34.8384 39.1244 35.0749Q38.9101 35.3113 38.6845 35.5369Q38.4588 35.7626 38.2224 35.9769Q37.986 36.1912 37.7393 36.3936Q37.4926 36.5961 37.2363 36.7862Q36.98 36.9762 36.7147 37.1535Q36.4493 37.3308 36.1756 37.4949Q35.9019 37.6589 35.6205 37.8094Q35.3391 37.9598 35.0506 38.0962Q34.7621 38.2327 34.4673 38.3548Q34.1725 38.4769 33.872 38.5844Q33.5716 38.6919 33.2662 38.7845Q32.9608 38.8772 32.6513 38.9547Q32.3418 39.0322 32.0288 39.0945Q31.7158 39.1567 31.4001 39.2036Q31.0845 39.2504 30.7669 39.2817Q30.4494 39.3129 30.1306 39.3286Q29.8119 39.3443 29.4928 39.3443L12.999 39.3443Q12.6799 39.3443 12.3612 39.3286Q12.0424 39.3129 11.7249 39.2817Q11.4073 39.2504 11.0917 39.2036Q10.776 39.1567 10.463 39.0945Q10.15 39.0322 9.8405 38.9547Q9.53096 38.8772 9.22559 38.7845Q8.92022 38.6919 8.61977 38.5844Q8.31931 38.4769 8.0245 38.3548Q7.72968 38.2327 7.44121 38.0962Q7.15274 37.9598 6.87131 37.8093Q6.58989 37.6589 6.31618 37.4949Q6.04247 37.3308 5.77714 37.1535Q5.51181 36.9762 5.2555 36.7862Q4.99919 36.5961 4.75252 36.3936Q4.50585 36.1912 4.2694 35.9769Q4.03296 35.7626 3.80732 35.5369Q3.58168 35.3113 3.36738 35.0749Q3.15308 34.8384 2.95064 34.5917Q2.7482 34.3451 2.55811 34.0888Q2.36801 33.8324 2.19073 33.5671Q2.01344 33.3018 1.84939 33.0281Q1.68533 32.7544 1.53491 32.4729Q1.38448 32.1915 1.24804 31.903Q1.11161 31.6146 0.98949 31.3198Q0.867373 31.0249 0.759869 30.7245Q0.652364 30.424 0.559732 30.1187Q0.4671 29.8133 0.389564 29.5038Q0.312027 29.1942 0.249772 28.8812Q0.187517 28.5683 0.140694 28.2526Q0.0938717 27.937 0.0625937 27.6194Q0.0313157 27.3018 0.0156579 26.9831Q0 26.6644 0 26.3453L0 0Z" transform="translate(0 24.173496)" id="Rectangle" fill="#FFFFFF" fill-rule="evenodd" stroke="#000000" stroke-width="1" />
    <path d="M17.6412 4.62711L17.6412 11.5101C17.6412 11.5101 12.5967 17.2699 6.25719 14.6483L6.27475 24.083L0.000434921 24.083L0.000434921 13.4437C0.000434921 13.4437 -0.0639286 1.58168e-15 9.39682 0C14.3985 0 17.6412 4.62711 17.6412 4.62711Z" transform="translate(21.798159 0)" id="Path-6" fill="#FFFFFF" fill-rule="evenodd" stroke="#000000" stroke-width="1" />
    <path d="M0.785885 0L1.57377 0L1.57377 6.81967L0.785885 6.81967Q0.708482 6.81967 0.632567 6.80457Q0.556651 6.78947 0.48514 6.75985Q0.413629 6.73023 0.349271 6.68723Q0.284913 6.64422 0.23018 6.58949Q0.175448 6.53476 0.132446 6.4704Q0.0894428 6.40604 0.0598219 6.33453Q0.0302011 6.26302 0.0151006 6.18711Q0 6.11119 0 6.03379L0 0.785885Q0 0.708482 0.0151006 0.632567Q0.0302011 0.556651 0.0598219 0.48514Q0.0894428 0.413629 0.132446 0.349271Q0.175448 0.284913 0.23018 0.23018Q0.284913 0.175448 0.349271 0.132446Q0.413629 0.0894428 0.48514 0.0598219Q0.556651 0.0302011 0.632567 0.0151006Q0.708482 0 0.785885 0Z" transform="translate(37.770493 4.76366)" id="Rectangle" fill="#FFFFFF" fill-rule="evenodd" stroke="#000000" stroke-width="1" />
    <path d="M17.6412 4.62711L17.6412 11.5101C17.6412 11.5101 12.5967 17.2699 6.25719 14.6483L6.27475 24.083L0.000434921 24.083L0.000434921 13.4437C0.000434921 13.4437 -0.0639286 1.58168e-15 9.39682 0C14.3985 0 17.6412 4.62711 17.6412 4.62711Z" transform="matrix(-1 0 0 1 19.699797 0)" id="Path-6-Copy" fill="#FFFFFF" fill-rule="evenodd" stroke="#000000" stroke-width="1" />
    <path d="M0.785885 0L1.57377 0L1.57377 6.81967L0.785885 6.81967Q0.708482 6.81967 0.632567 6.80457Q0.556651 6.78947 0.48514 6.75985Q0.413629 6.73023 0.349271 6.68723Q0.284913 6.64422 0.23018 6.58949Q0.175448 6.53476 0.132446 6.4704Q0.0894428 6.40604 0.0598219 6.33453Q0.0302011 6.26302 0.0151006 6.18711Q0 6.11119 0 6.03379L0 0.785885Q0 0.708482 0.0151006 0.632567Q0.0302011 0.556651 0.0598219 0.48514Q0.0894428 0.413629 0.132446 0.349271Q0.175448 0.284913 0.23018 0.23018Q0.284913 0.175448 0.349271 0.132446Q0.413629 0.0894428 0.48514 0.0598219Q0.556651 0.0302011 0.632567 0.0151006Q0.708482 0 0.785885 0Z" transform="matrix(-1 0 0 1 3.7274652 4.76366)" id="Rectangle-Copy-7" fill="#FFFFFF" fill-rule="evenodd" stroke="#000000" stroke-width="1" />
  </g>
</svg>