<?xml version="1.0" encoding="utf-8"?>
<svg width="50px" height="65px" viewBox="0 0 50 65" version="1.1" xmlns:xlink="http://www.w3.org/1999/xlink" xmlns="http://www.w3.org/2000/svg">
  <g id="Group-10" transform="translate(0.5 0.5)">
    <path d="M4.999 0L29.001 0Q29.1237 0 29.2463 0.00602151Q29.3689 0.012043 29.491 0.0240715Q29.6131 0.0361001 29.7345 0.0541066Q29.8559 0.0721132 29.9763 0.0960544Q30.0966 0.119996 30.2157 0.149814Q30.3347 0.179632 30.4521 0.215255Q30.5696 0.250879 30.6851 0.292221Q30.8007 0.333564 30.914 0.380526Q31.0274 0.427489 31.1383 0.479957Q31.2493 0.532426 31.3575 0.590276Q31.4657 0.648125 31.571 0.711215Q31.6763 0.774305 31.7783 0.842483Q31.8803 0.910662 31.9789 0.983765Q32.0775 1.05687 32.1723 1.13472Q32.2672 1.21257 32.3581 1.29499Q32.449 1.3774 32.5358 1.46417Q32.6226 1.55095 32.705 1.64188Q32.7874 1.73281 32.8653 1.82767Q32.9431 1.92253 33.0162 2.0211Q33.0893 2.11967 33.1575 2.2217Q33.2257 2.32374 33.2888 2.429Q33.3519 2.53426 33.4097 2.64249Q33.4676 2.75072 33.52 2.86165Q33.5725 2.97259 33.6195 3.08597Q33.6664 3.19934 33.7078 3.31489Q33.7491 3.43043 33.7847 3.54787Q33.8204 3.6653 33.8502 3.78434Q33.88 3.90338 33.9039 4.02374Q33.9279 4.1441 33.9459 4.26549Q33.9639 4.38688 33.9759 4.50901Q33.988 4.63114 33.994 4.75371Q34 4.87628 34 4.999L34 52.001Q34 52.1237 33.994 52.2463Q33.988 52.3689 33.9759 52.491Q33.9639 52.6131 33.9459 52.7345Q33.9279 52.8559 33.9039 52.9763Q33.88 53.0966 33.8502 53.2157Q33.8204 53.3347 33.7847 53.4521Q33.7491 53.5696 33.7078 53.6851Q33.6664 53.8007 33.6195 53.914Q33.5725 54.0274 33.52 54.1383Q33.4676 54.2493 33.4097 54.3575Q33.3519 54.4657 33.2888 54.571Q33.2257 54.6763 33.1575 54.7783Q33.0893 54.8803 33.0162 54.9789Q32.9431 55.0775 32.8653 55.1723Q32.7874 55.2672 32.705 55.3581Q32.6226 55.4491 32.5358 55.5358Q32.449 55.6226 32.3581 55.705Q32.2672 55.7874 32.1723 55.8653Q32.0775 55.9431 31.9789 56.0162Q31.8803 56.0893 31.7783 56.1575Q31.6763 56.2257 31.571 56.2888Q31.4657 56.3519 31.3575 56.4097Q31.2493 56.4676 31.1383 56.52Q31.0274 56.5725 30.914 56.6195Q30.8006 56.6664 30.6851 56.7078Q30.5696 56.7491 30.4521 56.7847Q30.3347 56.8204 30.2157 56.8502Q30.0966 56.88 29.9763 56.9039Q29.8559 56.9279 29.7345 56.9459Q29.6131 56.9639 29.491 56.9759Q29.3689 56.988 29.2463 56.994Q29.1237 57 29.001 57L4.999 57Q4.87628 57 4.75371 56.994Q4.63114 56.988 4.50901 56.9759Q4.38688 56.9639 4.26549 56.9459Q4.1441 56.9279 4.02374 56.9039Q3.90338 56.88 3.78434 56.8502Q3.6653 56.8204 3.54787 56.7847Q3.43043 56.7491 3.31489 56.7078Q3.19934 56.6664 3.08597 56.6195Q2.97259 56.5725 2.86165 56.52Q2.75072 56.4676 2.64249 56.4097Q2.53426 56.3519 2.429 56.2888Q2.32374 56.2257 2.2217 56.1575Q2.11967 56.0893 2.0211 56.0162Q1.92253 55.9431 1.82767 55.8653Q1.73281 55.7874 1.64188 55.705Q1.55095 55.6226 1.46417 55.5358Q1.3774 55.4491 1.29499 55.3581Q1.21257 55.2672 1.13472 55.1723Q1.05687 55.0775 0.983765 54.9789Q0.910662 54.8803 0.842483 54.7783Q0.774305 54.6763 0.711215 54.571Q0.648125 54.4657 0.590276 54.3575Q0.532426 54.2493 0.479957 54.1383Q0.427489 54.0274 0.380526 53.914Q0.333564 53.8007 0.292221 53.6851Q0.250879 53.5696 0.215255 53.4521Q0.179632 53.3347 0.149814 53.2157Q0.119996 53.0966 0.0960544 52.9763Q0.0721132 52.8559 0.0541066 52.7345Q0.0361001 52.6131 0.0240715 52.491Q0.012043 52.3689 0.00602151 52.2463Q0 52.1237 0 52.001L0 4.999Q0 4.87628 0.00602151 4.75371Q0.012043 4.63114 0.0240715 4.50901Q0.0361001 4.38688 0.0541066 4.26549Q0.0721132 4.1441 0.0960544 4.02374Q0.119996 3.90338 0.149814 3.78434Q0.179632 3.6653 0.215255 3.54787Q0.250879 3.43043 0.292221 3.31489Q0.333564 3.19934 0.380526 3.08597Q0.427489 2.97259 0.479957 2.86165Q0.532426 2.75072 0.590276 2.64249Q0.648125 2.53426 0.711215 2.429Q0.774305 2.32374 0.842483 2.2217Q0.910662 2.11967 0.983765 2.0211Q1.05687 1.92253 1.13472 1.82767Q1.21257 1.73281 1.29499 1.64188Q1.3774 1.55095 1.46417 1.46417Q1.55095 1.3774 1.64188 1.29499Q1.73281 1.21257 1.82767 1.13472Q1.92253 1.05687 2.0211 0.983765Q2.11967 0.910662 2.2217 0.842483Q2.32374 0.774305 2.429 0.711215Q2.53426 0.648125 2.64249 0.590276Q2.75072 0.532426 2.86165 0.479957Q2.97259 0.427489 3.08597 0.380526Q3.19934 0.333564 3.31489 0.292221Q3.43043 0.250879 3.54787 0.215255Q3.6653 0.179632 3.78434 0.149814Q3.90338 0.119996 4.02374 0.0960544Q4.1441 0.0721132 4.26549 0.0541066Q4.38688 0.0361001 4.50901 0.0240715Q4.63114 0.012043 4.75371 0.00602151Q4.87628 0 4.999 0Z" transform="translate(0 7)" id="Rectangle-Copy-24" fill="#FFFFFF" fill-rule="evenodd" stroke="#000000" stroke-width="1" />
    <path d="M4.999 0L29.001 0Q29.1237 0 29.2463 0.00602151Q29.3689 0.012043 29.491 0.0240715Q29.6131 0.0361001 29.7345 0.0541066Q29.8559 0.0721132 29.9763 0.0960544Q30.0966 0.119996 30.2157 0.149814Q30.3347 0.179632 30.4521 0.215255Q30.5696 0.250879 30.6851 0.292221Q30.8007 0.333564 30.914 0.380526Q31.0274 0.427489 31.1383 0.479957Q31.2493 0.532426 31.3575 0.590276Q31.4657 0.648125 31.571 0.711215Q31.6763 0.774305 31.7783 0.842483Q31.8803 0.910662 31.9789 0.983765Q32.0775 1.05687 32.1723 1.13472Q32.2672 1.21257 32.3581 1.29499Q32.449 1.3774 32.5358 1.46417Q32.6226 1.55095 32.705 1.64188Q32.7874 1.73281 32.8653 1.82767Q32.9431 1.92253 33.0162 2.0211Q33.0893 2.11967 33.1575 2.2217Q33.2257 2.32374 33.2888 2.429Q33.3519 2.53426 33.4097 2.64249Q33.4676 2.75072 33.52 2.86165Q33.5725 2.97259 33.6195 3.08597Q33.6664 3.19934 33.7078 3.31489Q33.7491 3.43043 33.7847 3.54787Q33.8204 3.6653 33.8502 3.78434Q33.88 3.90338 33.9039 4.02374Q33.9279 4.1441 33.9459 4.26549Q33.9639 4.38688 33.9759 4.50901Q33.988 4.63114 33.994 4.75371Q34 4.87628 34 4.999L34 59.001Q34 59.1237 33.994 59.2463Q33.988 59.3689 33.9759 59.491Q33.9639 59.6131 33.9459 59.7345Q33.9279 59.8559 33.9039 59.9763Q33.88 60.0966 33.8502 60.2157Q33.8204 60.3347 33.7847 60.4521Q33.7491 60.5696 33.7078 60.6851Q33.6664 60.8007 33.6195 60.914Q33.5725 61.0274 33.52 61.1383Q33.4676 61.2493 33.4097 61.3575Q33.3519 61.4657 33.2888 61.571Q33.2257 61.6763 33.1575 61.7783Q33.0893 61.8803 33.0162 61.9789Q32.9431 62.0775 32.8653 62.1723Q32.7874 62.2672 32.705 62.3581Q32.6226 62.449 32.5358 62.5358Q32.449 62.6226 32.3581 62.705Q32.2672 62.7874 32.1723 62.8653Q32.0775 62.9431 31.9789 63.0162Q31.8803 63.0893 31.7783 63.1575Q31.6763 63.2257 31.571 63.2888Q31.4657 63.3519 31.3575 63.4097Q31.2493 63.4676 31.1383 63.52Q31.0274 63.5725 30.914 63.6195Q30.8006 63.6664 30.6851 63.7078Q30.5696 63.7491 30.4521 63.7847Q30.3347 63.8204 30.2157 63.8502Q30.0966 63.88 29.9763 63.9039Q29.8559 63.9279 29.7345 63.9459Q29.6131 63.9639 29.491 63.9759Q29.3689 63.988 29.2463 63.994Q29.1237 64 29.001 64L4.999 64Q4.87628 64 4.75371 63.994Q4.63114 63.988 4.50901 63.9759Q4.38688 63.9639 4.26549 63.9459Q4.1441 63.9279 4.02374 63.9039Q3.90338 63.88 3.78434 63.8502Q3.6653 63.8204 3.54787 63.7847Q3.43043 63.7491 3.31489 63.7078Q3.19934 63.6664 3.08597 63.6195Q2.97259 63.5725 2.86165 63.52Q2.75072 63.4676 2.64249 63.4097Q2.53426 63.3519 2.429 63.2888Q2.32374 63.2257 2.2217 63.1575Q2.11967 63.0893 2.0211 63.0162Q1.92253 62.9431 1.82767 62.8653Q1.73281 62.7874 1.64188 62.705Q1.55095 62.6226 1.46417 62.5358Q1.3774 62.4491 1.29499 62.3581Q1.21257 62.2672 1.13472 62.1723Q1.05687 62.0775 0.983765 61.9789Q0.910662 61.8803 0.842483 61.7783Q0.774305 61.6763 0.711215 61.571Q0.648125 61.4657 0.590276 61.3575Q0.532426 61.2493 0.479957 61.1383Q0.427489 61.0274 0.380526 60.914Q0.333564 60.8007 0.292221 60.6851Q0.250879 60.5696 0.215255 60.4521Q0.179632 60.3347 0.149814 60.2157Q0.119996 60.0966 0.0960544 59.9763Q0.0721132 59.8559 0.0541066 59.7345Q0.0361001 59.6131 0.0240715 59.491Q0.012043 59.3689 0.00602151 59.2463Q0 59.1237 0 59.001L0 4.999Q0 4.87628 0.00602151 4.75371Q0.012043 4.63114 0.0240715 4.50901Q0.0361001 4.38688 0.0541066 4.26549Q0.0721132 4.1441 0.0960544 4.02374Q0.119996 3.90338 0.149814 3.78434Q0.179632 3.6653 0.215255 3.54787Q0.250879 3.43043 0.292221 3.31489Q0.333564 3.19934 0.380526 3.08597Q0.427489 2.97259 0.479957 2.86165Q0.532426 2.75072 0.590276 2.64249Q0.648125 2.53426 0.711215 2.429Q0.774305 2.32374 0.842483 2.2217Q0.910662 2.11967 0.983765 2.0211Q1.05687 1.92253 1.13472 1.82767Q1.21257 1.73281 1.29499 1.64188Q1.3774 1.55095 1.46417 1.46417Q1.55095 1.3774 1.64188 1.29499Q1.73281 1.21257 1.82767 1.13472Q1.92253 1.05687 2.0211 0.983765Q2.11967 0.910662 2.2217 0.842483Q2.32374 0.774305 2.429 0.711215Q2.53426 0.648125 2.64249 0.590276Q2.75072 0.532426 2.86165 0.479957Q2.97259 0.427489 3.08597 0.380526Q3.19934 0.333564 3.31489 0.292221Q3.43043 0.250879 3.54787 0.215255Q3.6653 0.179632 3.78434 0.149814Q3.90338 0.119996 4.02374 0.0960544Q4.1441 0.0721132 4.26549 0.0541066Q4.38688 0.0361001 4.50901 0.0240715Q4.63114 0.012043 4.75371 0.00602151Q4.87628 0 4.999 0Z" transform="translate(15 0)" id="Rectangle" fill="#FFFFFF" fill-rule="evenodd" stroke="#000000" stroke-width="1" />
    <path d="M0 0L18 0L18 2.001Q18 2.0992 17.9904 2.19694Q17.9807 2.29467 17.9616 2.39099Q17.9424 2.4873 17.9139 2.58128Q17.8854 2.67525 17.8478 2.76598Q17.8103 2.85671 17.764 2.94332Q17.7177 3.02993 17.6631 3.11158Q17.6085 3.19324 17.5462 3.26915Q17.4839 3.34507 17.4145 3.41451Q17.3451 3.48395 17.2691 3.54625Q17.1932 3.60855 17.1116 3.66311Q17.0299 3.71767 16.9433 3.76396Q16.8567 3.81025 16.766 3.84783Q16.6753 3.88542 16.5813 3.91392Q16.4873 3.94243 16.391 3.96159Q16.2947 3.98075 16.1969 3.99037Q16.0992 4 16.001 4L1.999 4Q1.9008 4 1.80306 3.99037Q1.70533 3.98075 1.60901 3.96159Q1.5127 3.94243 1.41872 3.91392Q1.32474 3.88542 1.23402 3.84783Q1.14329 3.81025 1.05668 3.76396Q0.970069 3.71767 0.888415 3.66311Q0.806761 3.60855 0.730848 3.54625Q0.654935 3.48395 0.585494 3.41451Q0.516052 3.34507 0.453752 3.26915Q0.391452 3.19324 0.336892 3.11158Q0.282333 3.02993 0.236039 2.94332Q0.189746 2.85671 0.152165 2.76598Q0.114584 2.67525 0.0860763 2.58128Q0.057569 2.4873 0.0384102 2.39099Q0.0192515 2.29467 0.00962573 2.19694Q0 2.0992 0 2.001L0 0Z" transform="translate(23 0)" id="Rectangle" fill="#FFFFFF" fill-rule="evenodd" stroke="#000000" stroke-width="1" />
  </g>
</svg>