<?xml version="1.0" encoding="utf-8"?>
<svg width="45px" height="65px" viewBox="0 0 45 65" version="1.1" xmlns:xlink="http://www.w3.org/1999/xlink" xmlns="http://www.w3.org/2000/svg">
  <g id="Group-9-Copy" transform="translate(0.5 0.5)">
    <path d="M3.999 0L40.001 0Q40.1975 0 40.393 0.0192563Q40.5885 0.0385126 40.7812 0.0768396Q40.9739 0.115167 41.1618 0.172196Q41.3498 0.229224 41.5313 0.304406Q41.7129 0.379587 41.8861 0.472197Q42.0594 0.564807 42.2227 0.673953Q42.3861 0.783099 42.5379 0.907731Q42.6898 1.03236 42.8287 1.17128Q42.9676 1.3102 43.0923 1.46206Q43.2169 1.61393 43.326 1.77727Q43.4352 1.94062 43.5278 2.11388Q43.6204 2.28715 43.6956 2.46865Q43.7708 2.65015 43.8278 2.83815Q43.8848 3.02615 43.9232 3.21883Q43.9615 3.41152 43.9807 3.60703Q44 3.80254 44 3.999L44 60.001Q44 60.1975 43.9807 60.393Q43.9615 60.5885 43.9232 60.7812Q43.8848 60.9739 43.8278 61.1618Q43.7708 61.3498 43.6956 61.5313Q43.6204 61.7128 43.5278 61.8861Q43.4352 62.0594 43.326 62.2227Q43.2169 62.3861 43.0923 62.5379Q42.9676 62.6898 42.8287 62.8287Q42.6898 62.9676 42.5379 63.0923Q42.3861 63.2169 42.2227 63.326Q42.0594 63.4352 41.8861 63.5278Q41.7128 63.6204 41.5313 63.6956Q41.3498 63.7708 41.1618 63.8278Q40.9739 63.8848 40.7812 63.9232Q40.5885 63.9615 40.393 63.9807Q40.1975 64 40.001 64L3.999 64Q3.80254 64 3.60703 63.9807Q3.41152 63.9615 3.21883 63.9232Q3.02615 63.8848 2.83815 63.8278Q2.65015 63.7708 2.46865 63.6956Q2.28715 63.6204 2.11388 63.5278Q1.94062 63.4352 1.77727 63.326Q1.61393 63.2169 1.46206 63.0923Q1.3102 62.9676 1.17128 62.8287Q1.03236 62.6898 0.907731 62.5379Q0.783099 62.3861 0.673953 62.2227Q0.564807 62.0594 0.472197 61.8861Q0.379587 61.7129 0.304406 61.5313Q0.229224 61.3498 0.172196 61.1618Q0.115167 60.9739 0.0768396 60.7812Q0.0385126 60.5885 0.0192563 60.393Q0 60.1975 0 60.001L0 3.999Q0 3.80254 0.0192563 3.60703Q0.0385126 3.41152 0.0768396 3.21883Q0.115167 3.02615 0.172196 2.83815Q0.229224 2.65015 0.304406 2.46865Q0.379587 2.28715 0.472197 2.11388Q0.564807 1.94062 0.673953 1.77727Q0.783099 1.61393 0.907731 1.46206Q1.03236 1.3102 1.17128 1.17128Q1.3102 1.03236 1.46206 0.907731Q1.61393 0.783099 1.77727 0.673953Q1.94062 0.564807 2.11388 0.472197Q2.28715 0.379587 2.46865 0.304406Q2.65015 0.229224 2.83815 0.172196Q3.02615 0.115167 3.21883 0.0768396Q3.41152 0.0385126 3.60703 0.0192563Q3.80254 0 3.999 0L3.999 0Z" id="Rectangle-Copy-26" fill="#FFFFFF" fill-rule="evenodd" stroke="#000000" stroke-width="1" />
    <path d="M1.999 0L36.6132 0Q36.7115 0 36.8092 0.00962573Q36.9069 0.0192515 37.0032 0.0384102Q37.0995 0.057569 37.1935 0.0860763Q37.2875 0.114584 37.3782 0.152165Q37.469 0.189746 37.5556 0.236039Q37.6422 0.282333 37.7238 0.336892Q37.8055 0.391452 37.8814 0.453752Q37.9573 0.516052 38.0267 0.585494Q38.0962 0.654935 38.1585 0.730848Q38.2208 0.806761 38.2753 0.888415Q38.3299 0.970069 38.3762 1.05668Q38.4225 1.14329 38.4601 1.23402Q38.4977 1.32474 38.5262 1.41872Q38.5547 1.5127 38.5738 1.60901Q38.593 1.70533 38.6026 1.80306Q38.6122 1.9008 38.6122 1.999L38.6122 56.001Q38.6122 56.0992 38.6026 56.1969Q38.593 56.2947 38.5738 56.391Q38.5547 56.4873 38.5262 56.5813Q38.4977 56.6753 38.4601 56.766Q38.4225 56.8567 38.3762 56.9433Q38.3299 57.0299 38.2753 57.1116Q38.2208 57.1932 38.1585 57.2692Q38.0962 57.3451 38.0267 57.4145Q37.9573 57.4839 37.8814 57.5462Q37.8055 57.6085 37.7238 57.6631Q37.6422 57.7177 37.5556 57.764Q37.469 57.8103 37.3782 57.8478Q37.2875 57.8854 37.1935 57.9139Q37.0995 57.9424 37.0032 57.9616Q36.9069 57.9807 36.8092 57.9904Q36.7115 58 36.6132 58L1.999 58Q1.9008 58 1.80306 57.9904Q1.70533 57.9807 1.60901 57.9616Q1.5127 57.9424 1.41872 57.9139Q1.32474 57.8854 1.23402 57.8478Q1.14329 57.8102 1.05668 57.764Q0.970069 57.7177 0.888415 57.6631Q0.806761 57.6085 0.730848 57.5462Q0.654935 57.4839 0.585494 57.4145Q0.516052 57.3451 0.453752 57.2691Q0.391452 57.1932 0.336892 57.1116Q0.282333 57.0299 0.236039 56.9433Q0.189746 56.8567 0.152165 56.766Q0.114584 56.6753 0.0860763 56.5813Q0.057569 56.4873 0.0384102 56.391Q0.0192515 56.2947 0.00962573 56.1969Q0 56.0992 0 56.001L0 1.999Q0 1.9008 0.00962573 1.80306Q0.0192515 1.70533 0.0384102 1.60901Q0.057569 1.5127 0.0860763 1.41872Q0.114584 1.32474 0.152165 1.23402Q0.189746 1.14329 0.236039 1.05668Q0.282333 0.970069 0.336892 0.888415Q0.391452 0.806761 0.453752 0.730848Q0.516052 0.654935 0.585494 0.585494Q0.654935 0.516052 0.730848 0.453752Q0.806761 0.391452 0.888415 0.336892Q0.970069 0.282333 1.05668 0.236039Q1.14329 0.189746 1.23402 0.152165Q1.32474 0.114584 1.41872 0.0860763Q1.5127 0.057569 1.60901 0.0384102Q1.70533 0.0192515 1.80306 0.00962573Q1.9008 0 1.999 0L1.999 0Z" transform="translate(2.6938775 3)" id="Rectangle" fill="#FFFFFF" fill-rule="evenodd" stroke="#000000" stroke-width="1" />
  </g>
</svg> 