<?xml version="1.0" encoding="utf-8"?>
<svg width="50px" height="65px" viewBox="0 0 50 65" version="1.1" xmlns:xlink="http://www.w3.org/1999/xlink" xmlns="http://www.w3.org/2000/svg">
  <g id="Group-9" transform="translate(0.5 0.5)">
    <path d="M3.999 0L45.001 0Q45.1975 0 45.393 0.0192563Q45.5885 0.0385126 45.7812 0.0768396Q45.9738 0.115167 46.1618 0.172196Q46.3498 0.229224 46.5313 0.304406Q46.7128 0.379587 46.8861 0.472197Q47.0594 0.564807 47.2227 0.673953Q47.3861 0.783099 47.5379 0.907731Q47.6898 1.03236 47.8287 1.17128Q47.9676 1.3102 48.0923 1.46206Q48.2169 1.61393 48.326 1.77727Q48.4352 1.94062 48.5278 2.11388Q48.6204 2.28715 48.6956 2.46865Q48.7708 2.65015 48.8278 2.83815Q48.8848 3.02615 48.9232 3.21883Q48.9615 3.41152 48.9807 3.60703Q49 3.80254 49 3.999L49 60.001Q49 60.1975 48.9807 60.393Q48.9615 60.5885 48.9232 60.7812Q48.8848 60.9739 48.8278 61.1618Q48.7708 61.3498 48.6956 61.5313Q48.6204 61.7128 48.5278 61.8861Q48.4352 62.0594 48.326 62.2227Q48.2169 62.3861 48.0923 62.5379Q47.9676 62.6898 47.8287 62.8287Q47.6898 62.9676 47.5379 63.0923Q47.3861 63.2169 47.2227 63.326Q47.0594 63.4352 46.8861 63.5278Q46.7128 63.6204 46.5313 63.6956Q46.3498 63.7708 46.1618 63.8278Q45.9738 63.8848 45.7812 63.9232Q45.5885 63.9615 45.393 63.9807Q45.1975 64 45.001 64L3.999 64Q3.80254 64 3.60703 63.9807Q3.41152 63.9615 3.21883 63.9232Q3.02615 63.8848 2.83815 63.8278Q2.65015 63.7708 2.46865 63.6956Q2.28715 63.6204 2.11388 63.5278Q1.94062 63.4352 1.77727 63.326Q1.61393 63.2169 1.46206 63.0923Q1.3102 62.9676 1.17128 62.8287Q1.03236 62.6898 0.907731 62.5379Q0.783099 62.3861 0.673953 62.2227Q0.564807 62.0594 0.472197 61.8861Q0.379587 61.7129 0.304406 61.5313Q0.229224 61.3498 0.172196 61.1618Q0.115167 60.9739 0.0768396 60.7812Q0.0385126 60.5885 0.0192563 60.393Q0 60.1975 0 60.001L0 3.999Q0 3.80254 0.0192563 3.60703Q0.0385126 3.41152 0.0768396 3.21883Q0.115167 3.02615 0.172196 2.83815Q0.229224 2.65015 0.304406 2.46865Q0.379587 2.28715 0.472197 2.11388Q0.564807 1.94062 0.673953 1.77727Q0.783099 1.61393 0.907731 1.46206Q1.03236 1.3102 1.17128 1.17128Q1.3102 1.03236 1.46206 0.907731Q1.61393 0.783099 1.77727 0.673953Q1.94062 0.564807 2.11388 0.472197Q2.28715 0.379587 2.46865 0.304406Q2.65015 0.229224 2.83815 0.172196Q3.02615 0.115167 3.21883 0.0768396Q3.41152 0.0385126 3.60703 0.0192563Q3.80254 0 3.999 0Z" id="Rectangle-Copy-26" fill="#FFFFFF" fill-rule="evenodd" stroke="#000000" stroke-width="1" />
    <path d="M1.999 0L41.001 0Q41.0992 0 41.1969 0.00962573Q41.2947 0.0192515 41.391 0.0384102Q41.4873 0.057569 41.5813 0.0860763Q41.6753 0.114584 41.766 0.152165Q41.8567 0.189746 41.9433 0.236039Q42.0299 0.282333 42.1116 0.336892Q42.1932 0.391452 42.2691 0.453752Q42.3451 0.516052 42.4145 0.585494Q42.4839 0.654935 42.5462 0.730848Q42.6085 0.806761 42.6631 0.888415Q42.7177 0.970069 42.764 1.05668Q42.8102 1.14329 42.8478 1.23402Q42.8854 1.32474 42.9139 1.41872Q42.9424 1.5127 42.9616 1.60901Q42.9808 1.70533 42.9904 1.80306Q43 1.9008 43 1.999L43 56.001Q43 56.0992 42.9904 56.1969Q42.9808 56.2947 42.9616 56.391Q42.9424 56.4873 42.9139 56.5813Q42.8854 56.6753 42.8478 56.766Q42.8102 56.8567 42.764 56.9433Q42.7177 57.0299 42.6631 57.1116Q42.6086 57.1932 42.5463 57.2692Q42.484 57.3451 42.4145 57.4145Q42.3451 57.4839 42.2692 57.5462Q42.1932 57.6085 42.1116 57.6631Q42.0299 57.7177 41.9433 57.764Q41.8567 57.8103 41.766 57.8478Q41.6753 57.8854 41.5813 57.9139Q41.4873 57.9424 41.391 57.9616Q41.2947 57.9807 41.1969 57.9904Q41.0992 58 41.001 58L1.999 58Q1.9008 58 1.80306 57.9904Q1.70533 57.9807 1.60901 57.9616Q1.5127 57.9424 1.41872 57.9139Q1.32474 57.8854 1.23402 57.8478Q1.14329 57.8102 1.05668 57.764Q0.970069 57.7177 0.888415 57.6631Q0.806761 57.6085 0.730848 57.5462Q0.654935 57.4839 0.585494 57.4145Q0.516052 57.3451 0.453752 57.2691Q0.391452 57.1932 0.336892 57.1116Q0.282333 57.0299 0.236039 56.9433Q0.189746 56.8567 0.152165 56.766Q0.114584 56.6753 0.0860763 56.5813Q0.057569 56.4873 0.0384102 56.391Q0.0192515 56.2947 0.00962573 56.1969Q0 56.0992 0 56.001L0 1.999Q0 1.9008 0.00962573 1.80306Q0.0192515 1.70533 0.0384102 1.60901Q0.057569 1.5127 0.0860763 1.41872Q0.114584 1.32474 0.152165 1.23402Q0.189746 1.14329 0.236039 1.05668Q0.282333 0.970069 0.336892 0.888415Q0.391452 0.806761 0.453752 0.730848Q0.516052 0.654935 0.585494 0.585494Q0.654935 0.516052 0.730848 0.453752Q0.806761 0.391452 0.888415 0.336892Q0.970069 0.282333 1.05668 0.236039Q1.14329 0.189746 1.23402 0.152165Q1.32474 0.114584 1.41872 0.0860763Q1.5127 0.057569 1.60901 0.0384102Q1.70533 0.0192515 1.80306 0.00962573Q1.9008 0 1.999 0L1.999 0Z" transform="translate(3 3)" id="Rectangle" fill="#FFFFFF" fill-rule="evenodd" stroke="#000000" stroke-width="1" />
  </g>
</svg>